<svg width="82" height="107" viewBox="0 0 82 107" fill="none" xmlns="http://www.w3.org/2000/svg">
<g clip-path="url(#clip0_235_110)">
<path d="M6.52861 94.6902V106.763H3.74697V94.6902H0V92.3127H10.2756V94.6902H6.52861Z" fill="white"></path>
<path d="M24.229 101.155C24.229 105.115 22.0457 107 18.2349 107C13.6742 107 12.6477 104.516 12.6477 101.756V92.3154H15.432V101.586C15.432 103.405 16.0303 104.689 18.429 104.689C20.5698 104.689 21.4686 103.79 21.4686 101.328V92.3154H24.2317V101.158L24.229 101.155Z" fill="white"></path>
<path d="M34.2014 106.763L30.5635 100.939H29.7923V106.763H27.008V92.3124C27.008 92.3124 28.9998 92.2273 31.2469 92.2273C34.5445 92.2273 36.5975 93.4479 36.5975 96.4024C36.5975 98.6921 35.1854 99.9978 33.3425 100.471C33.3425 100.471 33.9648 101.264 34.4567 102.035L37.5814 106.766H34.1988L34.2014 106.763ZM29.7923 98.8437C29.7923 98.8437 30.4119 98.8649 30.9704 98.8649C32.683 98.8649 33.6669 98.0725 33.6669 96.6604C33.6669 95.3334 32.8319 94.4983 31.0555 94.4983C30.4571 94.4983 29.7923 94.5622 29.7923 94.5622V98.8437Z" fill="white"></path>
<path d="M39.528 92.3366C39.528 92.3366 41.9028 92.2302 44.0462 92.2302C47.5352 92.2302 49.2691 93.5359 49.2691 95.9134C49.2691 97.2829 48.4979 98.5248 47.1496 99.0593V99.0806C48.7345 99.4875 49.761 100.687 49.761 102.336C49.761 104.519 48.0272 106.811 43.8733 106.811C42.9107 106.811 41.347 106.769 39.528 106.769V92.3393V92.3366ZM42.3097 98.3094C42.6527 98.3307 43.1021 98.3307 43.6366 98.3307C45.4769 98.3307 46.3119 97.5595 46.3119 96.3176C46.3119 95.2246 45.671 94.4348 43.8494 94.4348C43.3787 94.4348 42.7564 94.4561 42.307 94.4773V98.3094H42.3097ZM42.3097 104.516C42.6527 104.559 43.4665 104.58 43.9797 104.58C45.8838 104.58 46.7427 103.702 46.7427 102.461C46.7427 101.219 45.8652 100.405 43.7031 100.405C43.4452 100.405 42.6102 100.405 42.3123 100.426V104.516H42.3097Z" fill="white"></path>
<path d="M54.694 92.3127H51.9097V106.763H54.694V92.3127Z" fill="white"></path>
<path d="M67.2141 106.763L62.8688 99.7429C61.8423 98.0728 61.1562 96.8096 60.8131 96.0172H60.7918C60.8982 97.4718 61.0285 100.49 61.0285 102.825V106.763H58.332V92.3127H61.5657L65.568 98.7988C66.6157 100.469 67.2593 101.732 67.6236 102.524H67.6661C67.5385 100.918 67.4082 98.2005 67.4082 95.823V92.3127H70.1047V106.763H67.2141Z" fill="white"></path>
<path d="M72.9954 106.763V92.3127H81.1727V94.6476H75.777V98.2005H80.7233V100.469H75.777V104.367H81.1727V106.763H72.9954Z" fill="white"></path>
<path d="M3.68848 25.8271C3.68848 31.9409 8.64543 36.8952 14.7565 36.8952C20.8676 36.8952 25.8246 31.9382 25.8246 25.8271H3.68848Z" fill="#FAA74A"></path>
<path d="M51.6545 81.1727C44.5222 81.1727 38.7408 75.3913 38.7408 68.2591C38.7408 61.1268 44.5222 55.3455 51.6545 55.3455V81.1727Z" fill="#FAA74A"></path>
<path d="M62.7252 51.6545V40.5864C68.8389 40.5864 73.7932 45.5434 73.7932 51.6545H62.7252Z" fill="#FAA74A"></path>
<path d="M3.68848 55.3455C3.68848 61.4592 8.64543 66.4135 14.7565 66.4135C20.8676 66.4135 25.8246 61.4566 25.8246 55.3455H3.68848Z" fill="#F16147"></path>
<path d="M81.1728 40.5865C81.1728 35.4912 77.0429 31.3613 71.9476 31.3613C66.8524 31.3613 62.7225 35.4912 62.7225 40.5865H81.1701H81.1728Z" fill="#F16147"></path>
<path d="M55.3455 14.7592V3.68848C61.4593 3.68848 66.4136 8.64543 66.4136 14.7565H55.3455V14.7592Z" fill="#F16147"></path>
<path d="M14.7592 40.5864V55.3456C6.60839 55.3456 0 48.7372 0 40.5864H14.7592Z" fill="#F16147"></path>
<path d="M51.6545 7.37939C45.5407 7.37939 40.5864 12.3363 40.5864 18.4474C40.5864 24.5585 45.5434 29.5155 51.6545 29.5155V7.37939Z" fill="#9A2766"></path>
<path d="M25.8272 55.3456C21.7505 55.3456 18.4476 52.0427 18.4476 47.966C18.4476 43.8893 21.7505 40.5864 25.8272 40.5864V55.3456Z" fill="#9A2766"></path>
<path d="M40.5864 11.068H29.5184C29.5184 4.9543 34.4753 0 40.5864 0V11.068Z" fill="#9A2766"></path>
<path d="M44.2749 55.3457V47.9661C48.3516 47.9661 51.6545 51.2689 51.6545 55.3457H44.2749Z" fill="#9A2766"></path>
<path d="M51.6545 40.5864V29.5183C57.7682 29.5183 62.7225 34.4753 62.7225 40.5864H51.6545Z" fill="#9A2766"></path>
<path d="M25.8272 40.5863V25.8271C33.978 25.8271 40.5864 32.4355 40.5864 40.5863H25.8272Z" fill="#9A2766"></path>
<path d="M77.4817 29.5183C77.4817 22.3861 71.7004 16.6047 64.5681 16.6047C57.4358 16.6047 51.6545 22.3861 51.6545 29.5183H77.4817Z" fill="#2FA8AB"></path>
<path d="M77.4817 55.3455C77.4817 62.4777 71.7004 68.2591 64.5681 68.2591C57.4358 68.2591 51.6545 62.4777 51.6545 55.3455H77.4817Z" fill="#2FA8AB"></path>
<path d="M51.6545 55.3456C55.7312 55.3456 59.0341 52.0427 59.0341 47.966C59.0341 43.8893 55.7312 40.5864 51.6545 40.5864V55.3456Z" fill="#2FA8AB"></path>
<path d="M25.8272 55.3455C30.9224 55.3455 35.0524 59.4754 35.0524 64.5706C35.0524 69.6658 30.9224 73.7958 25.8272 73.7958V55.3481V55.3455Z" fill="#2FA8AB"></path>
<path d="M40.5864 40.5864C40.5864 43.642 43.0649 46.1204 46.1205 46.1204C49.176 46.1204 51.6545 43.642 51.6545 40.5864H40.5864Z" fill="#2FA8AB"></path>
<path d="M36.8953 25.8273H25.8272C25.8272 19.7136 30.7842 14.7593 36.8953 14.7593V25.8273Z" fill="#2FA8AB"></path>
<path d="M40.5864 29.5183H51.6545C51.6545 35.6321 46.6975 40.5864 40.5864 40.5864V29.5183Z" fill="#2FA8AB"></path>
<path d="M25.8272 11.0679V25.827C17.6764 25.827 11.0681 19.2187 11.0681 11.0679H25.8272Z" fill="#2FA8AB"></path>
<path d="M40.5864 55.3456H25.8272C25.8272 47.1948 32.4356 40.5864 40.5864 40.5864V55.3456Z" fill="#2FA8AB"></path>
</g>
<defs>
<clipPath id="clip0_235_110">
<rect width="81.1728" height="107" fill="white"></rect>
</clipPath>
</defs>
</svg>